<?xml version="1.0" encoding="UTF-8" standalone="no"?>
<svg
   xmlns:dc="http://purl.org/dc/elements/1.1/"
   xmlns:cc="http://creativecommons.org/ns#"
   xmlns:rdf="http://www.w3.org/1999/02/22-rdf-syntax-ns#"
   xmlns:svg="http://www.w3.org/2000/svg"
   xmlns="http://www.w3.org/2000/svg"
   xmlns:sodipodi="http://sodipodi.sourceforge.net/DTD/sodipodi-0.dtd"
   xmlns:inkscape="http://www.inkscape.org/namespaces/inkscape"
   height="840pt"
   version="1.1"
   viewBox="0 0 460 840"
   width="460pt"
   id="svg113288"
   sodipodi:docname="penrose9.svg"
   inkscape:version="0.92.4 (5da689c313, 2019-01-14)">
  <metadata
     id="metadata113294">
    <rdf:RDF>
      <cc:Work
         rdf:about="">
        <dc:format>image/svg+xml</dc:format>
        <dc:type
           rdf:resource="http://purl.org/dc/dcmitype/StillImage" />
        <dc:title></dc:title>
      </cc:Work>
    </rdf:RDF>
  </metadata>
  <defs
     id="defs113292" />
  <sodipodi:namedview
     pagecolor="#ffffff"
     bordercolor="#666666"
     borderopacity="1"
     objecttolerance="10"
     gridtolerance="10"
     guidetolerance="10"
     inkscape:pageopacity="0"
     inkscape:pageshadow="2"
     inkscape:window-width="2560"
     inkscape:window-height="1375"
     id="namedview113290"
     showgrid="false"
     inkscape:zoom="1.77"
     inkscape:cx="303.50282"
     inkscape:cy="884.07982"
     inkscape:window-x="0"
     inkscape:window-y="65"
     inkscape:window-maximized="0"
     inkscape:current-layer="svg113288"
     inkscape:snap-page="true" />
  <path
     style="color:#000000;font-style:normal;font-variant:normal;font-weight:normal;font-stretch:normal;font-size:medium;line-height:normal;font-family:sans-serif;font-variant-ligatures:normal;font-variant-position:normal;font-variant-caps:normal;font-variant-numeric:normal;font-variant-alternates:normal;font-feature-settings:normal;text-indent:0;text-align:start;text-decoration:none;text-decoration-line:none;text-decoration-style:solid;text-decoration-color:#000000;letter-spacing:normal;word-spacing:normal;text-transform:none;writing-mode:lr-tb;direction:ltr;text-orientation:mixed;dominant-baseline:auto;baseline-shift:baseline;text-anchor:start;white-space:normal;shape-padding:0;clip-rule:nonzero;display:inline;overflow:visible;visibility:visible;opacity:1;isolation:auto;mix-blend-mode:normal;color-interpolation:sRGB;color-interpolation-filters:linearRGB;solid-color:#000000;solid-opacity:1;vector-effect:none;fill:#000000;fill-opacity:1;fill-rule:nonzero;stroke:none;stroke-width:1;stroke-linecap:butt;stroke-linejoin:round;stroke-miterlimit:10;stroke-dasharray:none;stroke-dashoffset:0;stroke-opacity:1;color-rendering:auto;image-rendering:auto;shape-rendering:auto;text-rendering:auto;enable-background:accumulate"
     d="m 91.995978,2.8008256 a 1.1612804,1.1612804 0 0 0 -1.105611,0.802829 L 83.824729,25.334656 65.352695,11.904167 64.672349,12.843083 V 11.686447 H 40.253874 a 1.1612804,1.1612804 0 0 0 -0.115655,0 1.1612804,1.1612804 0 0 0 -0.598716,0.217603 l -19.768147,14.369408 0.683764,0.938917 -0.002,0.0046 -1.102204,-0.360587 -7.55551,23.24142 a 1.1612804,1.1612804 0 0 0 0.421836,1.302896 l 18.48223,13.42376 -18.482251,13.437294 a 1.1612804,1.1612804 0 0 0 -0.421837,1.296092 l 7.439865,22.88085 -7.439865,22.88084 a 1.1612804,1.1612804 0 0 0 -0.02396,0.0884 1.1612804,1.1612804 0 0 0 -0.0071,0.0306 1.1612804,1.1612804 0 0 0 -0.002,0.0116 1.1612804,1.1612804 0 0 0 -0.01395,0.0984 1.1612804,1.1612804 0 0 0 -0.0071,0.0817 1.1612804,1.1612804 0 0 0 -0.005,0.0444 1.1612804,1.1612804 0 0 0 0,0.007 1.1612804,1.1612804 0 0 0 0.0071,0.0984 1.1612804,1.1612804 0 0 0 0.01162,0.085 1.1612804,1.1612804 0 0 0 0.007,0.0407 1.1612804,1.1612804 0 0 0 0,0.007 1.1612804,1.1612804 0 0 0 0.02396,0.0953 1.1612804,1.1612804 0 0 0 0.01162,0.0338 L 19.091156,148.48726 0,162.34979 0.68034745,163.28872 0,164.2276 l 19.091156,13.87956 -7.293573,22.43519 a 1.1612804,1.1612804 0 0 0 -0.0071,0.0306 1.1612804,1.1612804 0 0 0 -0.02092,0.0681 1.1612804,1.1612804 0 0 0 -0.01162,0.0476 1.1612804,1.1612804 0 0 0 -0.01162,0.075 1.1612804,1.1612804 0 0 0 0,0.007 1.1612804,1.1612804 0 0 0 -0.007,0.0817 1.1612804,1.1612804 0 0 0 0,0.0918 1.1612804,1.1612804 0 0 0 0.002,0.0476 1.1612804,1.1612804 0 0 0 0,0.0116 1.1612804,1.1612804 0 0 0 0.01162,0.0818 1.1612804,1.1612804 0 0 0 0.0374,0.16674 1.1612804,1.1612804 0 0 0 0.005,0.0117 l 7.439865,22.89442 -7.439865,22.88085 a 1.1612804,1.1612804 0 0 0 0.421837,1.29948 l 18.482251,13.42712 -18.482251,13.43389 a 1.1612804,1.1612804 0 0 0 -0.421837,1.2995 l 7.439865,22.87742 -7.439865,22.88425 a 1.1612804,1.1612804 0 0 0 -0.02396,0.0884 1.1612804,1.1612804 0 0 0 -0.0071,0.0306 1.1612804,1.1612804 0 0 0 -0.005,0.0117 1.1612804,1.1612804 0 0 0 -0.01395,0.0953 1.1612804,1.1612804 0 0 0 -0.0071,0.0748 1.1612804,1.1612804 0 0 0 -0.002,0.0511 1.1612804,1.1612804 0 0 0 0,0.0117 1.1612804,1.1612804 0 0 0 0.0071,0.0952 1.1612804,1.1612804 0 0 0 0.01395,0.10195 1.1612804,1.1612804 0 0 0 0,0.0186 1.1612804,1.1612804 0 0 0 0.005,0.0186 1.1612804,1.1612804 0 0 0 0.02396,0.0919 1.1612804,1.1612804 0 0 0 0.01162,0.0375 L 19.091446,345.43293 2.8984873e-4,359.29544 0.6806373,360.23437 2.8984873e-4,361.17327 19.091446,375.04941 l -7.293573,22.4454 a 1.1612804,1.1612804 0 0 0 -0.007,0.0306 1.1612804,1.1612804 0 0 0 -0.02092,0.0681 1.1612804,1.1612804 0 0 0 -0.01162,0.0478 1.1612804,1.1612804 0 0 0 -0.01162,0.0748 1.1612804,1.1612804 0 0 0 0,0.007 1.1612804,1.1612804 0 0 0 -0.0071,0.0818 1.1612804,1.1612804 0 0 0 0,0.0916 1.1612804,1.1612804 0 0 0 0.005,0.0477 1.1612804,1.1612804 0 0 0 0,0.0116 1.1612804,1.1612804 0 0 0 0.01162,0.0818 1.1612804,1.1612804 0 0 0 0.0374,0.16326 1.1612804,1.1612804 0 0 0 0.002,0.0139 l 7.439864,22.88424 -7.439864,22.88084 a 1.1612804,1.1612804 0 0 0 -0.002,0.007 1.1612804,1.1612804 0 0 0 -0.01395,0.0544 1.1612804,1.1612804 0 0 0 -0.01395,0.0511 1.1612804,1.1612804 0 0 0 -0.005,0.0209 1.1612804,1.1612804 0 0 0 -0.02396,0.22108 1.1612804,1.1612804 0 0 0 0,0.024 1.1612804,1.1612804 0 0 0 0.02396,0.20762 1.1612804,1.1612804 0 0 0 0,0.007 1.1612804,1.1612804 0 0 0 0.02396,0.0953 1.1612804,1.1612804 0 0 0 0.01162,0.0338 l 7.293551,22.44538 -19.0911663,13.86594 0.68037843,0.94231 -0.68037843,0.93892 19.0911663,13.86932 -7.293551,22.43859 a 1.1612804,1.1612804 0 0 0 -0.0071,0.0306 1.1612804,1.1612804 0 0 0 -0.02092,0.0681 1.1612804,1.1612804 0 0 0 -0.002,0.014 1.1612804,1.1612804 0 0 0 -0.01395,0.0818 1.1612804,1.1612804 0 0 0 -0.01162,0.0818 1.1612804,1.1612804 0 0 0 -0.002,0.0578 1.1612804,1.1612804 0 0 0 0,0.0116 1.1612804,1.1612804 0 0 0 0.002,0.0818 1.1612804,1.1612804 0 0 0 0.07824,0.37421 l 7.41603,22.81279 -7.439855,22.88083 a 1.1612804,1.1612804 0 0 0 0.421847,1.29609 l 18.478835,13.43391 -18.478835,13.42709 a 1.1612804,1.1612804 0 0 0 -0.421847,1.2995 l 7.439855,22.88423 -7.439855,22.88084 a 1.1612804,1.1612804 0 0 0 -0.02396,0.0885 1.1612804,1.1612804 0 0 0 -0.0091,0.0339 1.1612804,1.1612804 0 0 0 -0.005,0.0209 1.1612804,1.1612804 0 0 0 -0.02092,0.21086 1.1612804,1.1612804 0 0 0 0,0.024 1.1612804,1.1612804 0 0 0 0.02396,0.20761 1.1612804,1.1612804 0 0 0 0,0.007 1.1612804,1.1612804 0 0 0 0.02396,0.0953 1.1612804,1.1612804 0 0 0 0.01162,0.0338 l 7.293571,22.4454 -19.09116499,13.86253 0.68036744,0.94231 -0.68036744,0.94234 19.09116499,13.86931 -7.283362,22.40798 -0.01162,0.0306 a 1.1612804,1.1612804 0 0 0 -0.0272,0.10544 1.1612804,1.1612804 0 0 0 -0.002,0.007 1.1612804,1.1612804 0 0 0 -0.01395,0.0818 1.1612804,1.1612804 0 0 0 -0.01162,0.0817 1.1612804,1.1612804 0 0 0 -0.002,0.0578 1.1612804,1.1612804 0 0 0 0,0.0117 1.1612804,1.1612804 0 0 0 0.002,0.0817 1.1612804,1.1612804 0 0 0 0.07824,0.37422 l 7.416061,22.81279 -7.439865,22.88085 a 1.1612804,1.1612804 0 0 0 -0.005,0.014 1.1612804,1.1612804 0 0 0 -0.02719,0.10196 1.1612804,1.1612804 0 0 0 -0.002,0.0116 1.1612804,1.1612804 0 0 0 -0.01395,0.0987 1.1612804,1.1612804 0 0 0 -0.0071,0.0817 1.1612804,1.1612804 0 0 0 -0.005,0.0441 1.1612804,1.1612804 0 0 0 0,0.007 1.1612804,1.1612804 0 0 0 0.0071,0.0987 1.1612804,1.1612804 0 0 0 0.0091,0.085 1.1612804,1.1612804 0 0 0 0.0071,0.0409 1.1612804,1.1612804 0 0 0 0.007,0.0306 1.1612804,1.1612804 0 0 0 0.01628,0.0716 1.1612804,1.1612804 0 0 0 0.0071,0.0163 1.1612804,1.1612804 0 0 0 0.005,0.014 l 7.293581,22.45219 -19.09116623,13.86254 0.68034845,0.9389 -0.68034845,0.94234 19.46877023,14.14827 7.433031,22.88426 1.105591,-0.36054 0.680378,0.93882 19.097968,-13.8659 19.046975,13.8319 a 1.1612804,1.1612804 0 0 0 0.125864,0.0888 1.1612804,1.1612804 0 0 0 0.06136,0.0332 1.1612804,1.1612804 0 0 0 0.03386,0.0209 1.1612804,1.1612804 0 0 0 0.07156,0.0279 1.1612804,1.1612804 0 0 0 0.04418,0.0209 1.1612804,1.1612804 0 0 0 0.01395,0 1.1612804,1.1612804 0 0 0 0.08178,0.0244 1.1612804,1.1612804 0 0 0 0.227814,0.0384 1.1612804,1.1612804 0 0 0 0.06803,0 h 24.438887 24.438884 v -1.1633 l 0.68035,0.9388 19.09458,-13.86588 19.09118,13.86588 0.68376,-0.9388 h 0.005 v 1.1633 h 24.43888 a 1.1612804,1.1612804 0 0 0 0.002,0 1.1612804,1.1612804 0 0 0 0.002,0 1.1612804,1.1612804 0 0 0 0.15651,-0.0186 1.1612804,1.1612804 0 0 0 0.0647,-0.0186 1.1612804,1.1612804 0 0 0 0.0117,0 1.1612804,1.1612804 0 0 0 0.10544,-0.0279 1.1612804,1.1612804 0 0 0 0.007,0 1.1612804,1.1612804 0 0 0 0.10195,-0.0384 1.1612804,1.1612804 0 0 0 0.10891,-0.0541 1.1612804,1.1612804 0 0 0 0.0918,-0.0539 1.1612804,1.1612804 0 0 0 0.007,0 1.1612804,1.1612804 0 0 0 0.0209,-0.0186 l 19.09458,-13.86586 19.08096,13.86586 0.68374,-0.93882 h 0.002 v 1.16334 h 24.44569 a 1.1612804,1.1612804 0 0 0 1.1022,-0.80279 l 6.44649,-19.84299 6.44991,19.84299 1.10561,-0.36055 0.68035,0.93882 19.098,-13.86586 19.03673,13.83191 a 1.1612804,1.1612804 0 0 0 0.23812,0.14979 1.1612804,1.1612804 0 0 0 0.0306,0.0186 1.1612804,1.1612804 0 0 0 0.0716,0.0279 1.1612804,1.1612804 0 0 0 0.0117,0 1.1612804,1.1612804 0 0 0 0.0818,0.0244 1.1612804,1.1612804 0 0 0 0.22783,0.0384 1.1612804,1.1612804 0 0 0 0.0681,0 h 24.44908 V 838.212 l 0.68039,0.9388 19.08776,-13.86585 19.09118,13.86585 0.68036,-0.9388 h 0.002 v 1.16332 h 24.43887 24.43889 a 1.1612804,1.1612804 0 0 0 0.002,0 1.1612804,1.1612804 0 0 0 0.007,0 1.1612804,1.1612804 0 0 0 0.22804,-0.0279 1.1612804,1.1612804 0 0 0 0.10544,-0.0279 1.1612804,1.1612804 0 0 0 0.007,0 1.1612804,1.1612804 0 0 0 0.10195,-0.0384 1.1612804,1.1612804 0 0 0 0.11241,-0.0539 1.1612804,1.1612804 0 0 0 0.0918,-0.0539 1.1612804,1.1612804 0 0 0 0.007,0 1.1612804,1.1612804 0 0 0 0.0163,-0.0186 l 0.0375,-0.0279 a 1.1612804,1.1612804 0 0 0 0.0306,-0.0244 l 7.433,-5.39524 11.59352,-8.41959 19.09118,13.86585 0.68377,-0.93879 1.10559,0.36054 7.54531,-23.24148 a 1.1612804,1.1612804 0 0 0 -0.42183,-1.3029 l -19.08097,-13.86931 7.28336,-22.43862 -1.1022,-0.36059 1.1022,-0.36059 -7.28675,-22.44198 19.08436,-13.86933 -0.68376,-0.94234 0.68376,-0.93889 -19.08436,-13.87276 7.28675,-22.44198 -1.1022,-0.3572 1.1022,-0.3572 -7.28336,-22.44539 19.08097,-13.86935 a 1.1612804,1.1612804 0 0 0 0.42183,-1.29608 l -7.42963,-22.89106 7.42963,-22.88081 a 1.1612804,1.1612804 0 0 0 -0.42522,-1.29953 l 0.002,-0.002 -19.08437,-13.86592 7.28676,-22.442 -1.1022,-0.3606 1.1022,-0.36059 -7.28336,-22.44539 19.02653,-13.82512 a 1.1612804,1.1612804 0 0 0 0.47626,-1.34035 l -7.42962,-22.89102 7.42962,-22.88425 a 1.1612804,1.1612804 0 0 0 -0.42182,-1.29609 l -19.08097,-13.87273 7.28336,-22.442 -1.1022,-0.3606 1.1022,-0.35718 -7.28336,-22.4386 19.08097,-13.87274 -0.68379,-0.93891 0.68379,-0.93892 -19.08097,-13.87273 7.28336,-22.43859 -1.1022,-0.36061 1.1022,-0.3606 -7.28676,-22.44877 19.08437,-13.85913 a 1.1612804,1.1612804 0 0 0 0.42182,-1.30293 l -7.42962,-22.89102 7.42962,-22.88425 a 1.1612804,1.1612804 0 0 0 -0.44562,-1.31309 l -0.0163,-0.014 a 1.1612804,1.1612804 0 0 0 -0.007,-0.002 l -19.03333,-13.83871 7.28335,-22.442 -1.1022,-0.3572 1.1022,-0.35719 -7.28335,-22.43859 19.02653,-13.83873 a 1.1612804,1.1612804 0 0 0 0.47626,-1.33351 l -7.42963,-22.89104 7.42963,-22.88085 a 1.1612804,1.1612804 0 0 0 -0.42181,-1.29609 l -18.47155,-13.43873 18.47203,-13.4169 a 1.1612804,1.1612804 0 0 0 0.42183,-1.29951 l -7.42964,-22.89102 7.42964,-22.88422 a 1.1612804,1.1612804 0 0 0 -0.42183,-1.29612 v -0.002 l -19.08097,-13.869338 7.28335,-22.441983 -1.10219,-0.360589 1.10219,-0.357195 -7.28674,-22.442008 19.08436,-13.87273 a 1.1612804,1.1612804 0 0 0 0.42183,-1.296092 l -7.54527,-23.2522324 -1.10559,0.360588 -0.68376,-0.938894 -19.09118,13.8727314 -19.05715,-13.8455364 -0.0117,-0.01161 a 1.1612804,1.1612804 0 0 0 -0.22782,-0.136089 1.1612804,1.1612804 0 0 0 -0.0186,-0.007 1.1612804,1.1612804 0 0 0 -0.0917,-0.0339 1.1612804,1.1612804 0 0 0 -0.0117,-0.0046 1.1612804,1.1612804 0 0 0 -0.0681,-0.0209 1.1612804,1.1612804 0 0 0 -0.22782,-0.03739 1.1612804,1.1612804 0 0 0 -0.0647,-0.0047 h -24.42164 a 1.1612804,1.1612804 0 0 0 -0.0117,0 h -24.43875 v 1.163816 l -0.68368,-0.938917 -19.0912,13.8727314 h -0.002 l -19.08437,-13.8727314 -0.68038,0.938917 v -1.16344 h -24.4491 a 1.1612804,1.1612804 0 0 0 -0.0186,0 1.1612804,1.1612804 0 0 0 -0.0339,0.0046 1.1612804,1.1612804 0 0 0 -0.19741,0.02393 1.1612804,1.1612804 0 0 0 -0.024,0.007 1.1612804,1.1612804 0 0 0 -0.0713,0.01625 1.1612804,1.1612804 0 0 0 -0.0186,0.007 1.1612804,1.1612804 0 0 0 -0.0919,0.0339 1.1612804,1.1612804 0 0 0 -0.002,0 1.1612804,1.1612804 0 0 0 -0.014,0.007 1.1612804,1.1612804 0 0 0 -0.0849,0.04412 1.1612804,1.1612804 0 0 0 -0.0783,0.04761 1.1612804,1.1612804 0 0 0 -0.024,0.01394 1.1612804,1.1612804 0 0 0 -0.014,0.01161 1.1612804,1.1612804 0 0 0 -0.0783,0.05783 L 279.29574,16.91345 h -0.002 l -19.0945,-13.8727354 -0.68038,0.938916 -1.10561,-0.360611 -6.44991,19.8497774 -6.44648,-19.8497774 a 1.1612804,1.1612804 0 0 0 -1.10223,-0.802829 h -24.4446 v 1.160027 h -0.002 L 219.28424,3.0407146 200.20327,16.913444 181.13591,3.0577136 h -0.002 a 1.1612804,1.1612804 0 0 0 -0.12238,-0.08174 1.1612804,1.1612804 0 0 0 -0.0209,-0.01161 1.1612804,1.1612804 0 0 0 -0.0818,-0.04412 1.1612804,1.1612804 0 0 0 -0.0783,-0.03066 1.1612804,1.1612804 0 0 0 -0.0306,-0.01161 1.1612804,1.1612804 0 0 0 -0.30956,-0.0613 1.1612804,1.1612804 0 0 0 -0.0614,-0.0023 H 155.9879 a 1.1612804,1.1612804 0 0 0 -0.0209,0 1.1612804,1.1612804 0 0 0 -0.66676,0.22457 L 136.20907,16.911629 h -0.005 l -19.09122,-13.8727254 -0.68033,0.935504 v -1.160027 z m 0.843661,2.3234427 H 114.836 L 108.0425,26.052442 H 86.039345 Z m 64.743981,0 h 21.99635 l 6.80029,20.9281737 h -22.00315 z m 63.98196,0 h 22.00657 l 6.79349,20.9281737 h -21.99635 z m 78.34118,0 h 22.00653 L 315.1096,26.052442 h -21.99633 l 0.57831,-1.782573 z m 89.18284,0 h 21.99976 l 6.80031,20.9281737 H 395.8933 Z M 117.0438,5.8420537 134.84227,18.779304 128.04536,39.704063 110.25371,26.773642 Z m 143.08513,0 0.79263,0.5749155 17.00584,12.3623348 -6.80028,20.924759 -9.14757,-6.647223 -8.65089,-6.28659 z m 63.99219,0 17.79166,12.9338603 -6.40908,19.74771 -0.38443,1.180439 -17.79844,-12.933813 0.0209,-0.06805 z m 62.76068,0 1.2689,3.9019305 5.5314,17.0296578 -17.79847,12.930421 -6.80032,-20.924759 z m -167.52403,0.00465 2.19759,6.7594833 4.60271,14.165299 -17.79846,12.930424 -6.79349,-20.921369 z m 231.51282,0 6.79689,20.9281743 -17.79168,12.930417 -1.00353,-3.085468 -5.79674,-17.842684 z M 40.21983,14.28669 58.018318,27.217112 40.21983,40.147536 22.431582,27.213722 Z m 304.65935,5.211629 h 21.99295 l 6.80368,20.924761 h -21.99633 z m -180.50207,8.87882 h 22.00654 l -6.80368,20.917909 h -21.99635 l 2.68747,-8.273294 z m 87.584,0.275568 17.80187,12.930422 -17.79848,12.92701 -17.79506,-12.92701 z M 21.067451,29.094924 38.855689,42.028761 32.06221,62.943326 14.267138,50.016294 Z m 62.757278,0 6.803698,20.917979 L 72.82996,62.943326 66.03648,42.028761 Z m 104.766731,0 1.33012,0.966136 16.45816,11.967701 -6.79009,20.917955 -1.03758,-0.755198 -16.76089,-12.178615 z m 207.07052,0 17.78827,12.933837 -6.79349,20.917955 -17.7985,-12.933813 z m -247.84505,0.0023 2.06489,6.351243 4.73537,14.56332 -17.79845,12.933814 -6.80029,-20.917955 z m 167.52402,0.0046 6.8037,20.914565 -17.80189,12.927032 -6.79688,-20.914586 z M 41.8187,42.746709 h 22.009966 l 5.46337,16.825547 1.326723,4.092409 H 48.625825 Z m 63.99219,0 h 21.99975 l 6.80027,20.917956 h -21.99633 z m 102.78343,0 h 22.00317 l -6.80029,20.917747 h -21.99978 z m 64.74058,0 h 21.99977 l 6.80029,20.917956 h -21.99297 z m 78.34458,0 h 21.99633 l -6.80368,20.917747 h -21.99634 z m 63.98196,0 h 22.00316 l -3.56854,10.974372 -3.23175,9.943584 h -21.99975 z m -182.85613,0.714394 17.79504,12.930423 -6.79689,20.931564 -17.79847,-12.940618 z m -140.81274,8.433187 17.80529,12.930424 -6.2254,4.524453 -11.576482,8.412774 -17.801876,-12.937227 z m 295.50156,0 17.79849,12.930424 -17.79849,12.937227 -17.80187,-12.937227 z m -231.50939,0.0046 16.92761,12.297681 0.86405,0.629351 -17.78825,12.937204 -17.80526,-12.937204 2.3949,-1.738356 z m 167.52405,0 17.79165,12.927032 -17.78827,12.937204 -17.80186,-12.937204 z M 48.625825,65.989389 h 21.992934 l -1.326723,4.092409 -5.46337,16.825548 H 41.822118 Z m 63.988755,0 h 21.99633 l -6.80027,20.917957 h -21.99637 z m 167.52741,0 h 21.99297 l -6.80029,20.917952 h -21.99634 z m 64.7338,0 h 21.99293 l 6.80372,20.917957 h -21.99296 z m 63.98877,0 h 21.99975 l 2.93581,9.035298 3.86107,11.882659 h -21.99975 z m -272.04582,0.714395 17.79845,12.940617 -6.80026,20.914559 -17.79848,-12.933806 z m 126.75287,0 6.80031,20.92476 -17.6454,12.818176 -0.15304,0.11217 -6.7901,-20.917972 z m 143.08515,0 1.07498,3.313383 5.71851,17.607987 -11.36217,8.259685 -6.43291,4.674121 -6.79691,-20.914559 z m -374.59455,0.0023 0.578307,1.779159 6.215172,19.138798 -16.808523,12.21944 -0.979715,0.710999 -6.800313,-20.914559 z m 40.76775,0 L 90.628427,79.64332 83.828145,100.55788 81.099871,98.574616 66.03648,87.624049 Z m 126.75627,0 6.79351,20.917957 -14.01563,10.191954 -3.77265,2.741875 -6.80028,-20.914558 z m 104.75993,0 17.79849,12.933837 -6.80032,20.917949 h -0.005 l -17.7947,-12.930399 z m -146.75915,13.65503 h 21.99296 l 5.39871,16.594221 1.40497,4.320345 h -22.00654 z m 63.98199,0 h 22.00315 l 4.37816,13.478121 2.41533,7.436445 h -21.99635 z m 130.11048,8.868624 h 21.99633 L 366.86872,110.1613 H 344.87579 Z M 40.21983,89.505283 58.021734,102.43573 40.21983,115.36955 22.431582,102.43573 Z m 231.51961,0 13.68904,9.947029 4.10942,2.983418 -17.80185,12.93382 -17.79849,-12.93382 z m 167.52744,0 17.78826,12.930447 -17.79168,12.93382 -17.80186,-12.93382 z m -231.5196,0.0046 17.80186,12.927047 -17.80186,12.93382 -17.79166,-12.93382 z m -79.70532,0.442263 1.81659,5.592633 4.98372,15.332121 -16.67928,12.11399 -1.11919,0.80964 -6.79009,-20.91799 z m 207.07731,0 6.79351,20.924754 -17.79166,12.92363 -6.80029,-20.91799 z m 40.76436,0 17.79847,12.930394 -4.73536,14.56673 -2.06494,6.35126 -17.79849,-12.92363 3.98701,-12.267066 z M 86.039345,103.60039 H 108.0425 l 6.7935,20.91797 H 92.839639 Z m 78.337765,0 h 22.00654 l -6.80368,20.91797 h -21.99296 z m 63.99218,0 h 21.99635 l -6.79349,20.91797 h -22.00657 z m 64.74398,0 h 21.99633 l 5.43276,16.70989 1.36756,4.20808 h -22.00316 z m 102.78003,0 h 21.99974 l -6.80368,20.91797 h -21.99635 z m -207.30184,0.7144 17.79168,12.94062 -6.79349,20.91456 -17.79847,-12.93381 z m 231.50601,0 17.79846,12.94062 -6.80031,20.91456 -17.79846,-12.93381 z m -399.030019,0.005 17.788238,12.93381 v 0.005 L 32.06221,138.1698 14.267138,125.24277 Z m 62.757278,0 6.803698,20.91794 -17.798467,12.93385 -6.79348,-20.91456 z m 207.077341,0 6.79348,20.91794 -17.78827,12.93045 -6.80029,-20.91458 12.99164,-9.44351 z m -154.69228,8.43998 17.79508,12.92363 -17.79847,12.93042 -17.79166,-12.93042 z m 207.07053,0 17.79508,12.92363 -17.79849,12.93042 -17.78824,-12.93042 z m -301.458202,5.21502 h 22.006548 l 6.790093,20.91457 H 48.625825 Z m 179.743462,8.86863 h 22.00657 l 6.79349,20.93155 h -21.99635 z m -128.960656,0.71439 7.160874,5.20482 10.637582,7.7324 -4.73537,14.56671 -2.06492,6.35125 -8.164446,-5.926 -9.634036,-6.99762 z m 62.767496,0 1.46279,4.50404 5.33072,16.42752 -17.78828,12.92023 -6.80032,-20.91457 z m 104.75651,0 17.79847,12.93722 -6.80028,20.91796 -17.79846,-12.92362 z m 63.99219,0 7.09963,5.16059 10.69203,7.77663 -4.29654,13.2298 -2.49697,7.68816 -17.79844,-12.92362 z m 62.76068,0 2.34048,7.20851 4.45982,13.72305 -16.67927,12.11399 -1.1192,0.80963 -6.80032,-20.91796 z m -167.52742,0.002 6.80369,20.92816 -17.79846,12.92362 -6.79349,-20.91796 z m 231.51621,0 6.79689,20.93155 -17.79168,12.92023 -6.80027,-20.91796 z M 48.625825,141.21148 h 21.992934 l -6.790093,20.91799 H 41.8187 Z m 63.988755,0 h 21.99633 l -6.80027,20.91799 h -21.99975 z m 64.73377,0 h 22.00996 l 6.7901,20.91799 h -21.99294 z m 102.79364,0 h 21.99297 l -6.80029,20.91799 H 273.3349 Z m 64.73719,0 h 21.99295 l 5.48719,16.86978 1.31649,4.04821 h -21.99633 z m 63.98538,0 h 21.99975 l 3.23175,9.94363 3.56854,10.97436 h -22.00316 z m -388.406055,9.15781 17.788269,12.92023 -17.788269,12.9372 -17.8052687,-12.9372 z m 63.981961,0 17.798484,12.92023 -17.80189,12.93382 -17.791666,-12.93382 0.904897,-0.65657 z m 79.092984,0 6.71865,4.87822 11.07982,8.04201 -17.80187,12.93382 -17.78825,-12.93382 z m 88.43105,0 6.71864,4.87822 11.07984,8.04201 -4.15706,3.02081 -13.64481,9.91301 -17.79167,-12.93382 0.90487,-0.65657 z m 63.99217,0 17.79846,12.92023 -17.80185,12.93382 -17.80189,-12.93382 3.20796,-2.32689 z m 79.09298,0 7.84125,5.69469 9.95041,7.22554 -17.79166,12.9372 -17.80187,-12.9372 z M 41.8187,164.45293 h 22.009966 l 6.790093,20.92817 H 48.625825 Z m 63.99219,0 h 21.99975 l 2.86096,8.8108 3.93592,12.11737 h -21.99294 z m 78.34458,0 h 21.99294 l -1.72814,5.3239 -5.06196,15.60427 h -22.00654 z m 89.17943,0 h 21.99977 l 6.79689,20.92817 h -21.98957 z m 78.34458,0 h 21.99633 l -1.04434,3.20795 -5.75934,17.72022 h -21.99295 z m 63.98196,0 h 22.00316 l -6.80029,20.92817 h -21.99975 z m -312.05835,0.7144 0.46944,1.44918 6.33085,19.48238 -17.798456,12.92701 -6.800316,-20.91797 z m 167.52403,0 6.80369,20.93156 -17.80188,12.92362 -6.80027,-20.91458 z m 63.99215,0 6.79351,20.93156 -17.79166,12.92362 -6.80029,-20.91458 z m 40.76436,0 17.79847,12.9406 -6.8003,20.91458 -17.79849,-12.92362 z m -231.50598,0.005 17.78828,12.93722 -6.79351,20.91457 -17.79509,-12.92024 z m 63.98196,0 17.79846,12.93722 -3.68759,11.34516 -3.11271,9.56941 -17.79165,-12.92362 z m 231.51619,0 17.79168,12.93381 -6.79689,20.91798 -17.79506,-12.92024 z M 228.36929,178.8274 h 21.99635 l -6.79349,20.91456 h -22.00657 z m -179.743465,8.87542 h 21.992934 l -1.534218,4.73198 -5.259262,16.19279 H 41.8187 Z m 87.583965,0.27896 6.71869,4.87824 11.0798,8.04199 -17.79849,12.93382 -17.80186,-12.93382 z m 207.07053,0 17.79848,12.92023 -17.80189,12.93382 -17.79166,-12.93382 z m -143.69067,0.44222 6.79349,20.91798 -17.79168,12.93384 -6.80028,-20.92818 z m 231.50597,0 6.80031,20.91798 -17.79846,12.93384 -6.80031,-20.92818 z m -399.03341,0.005 6.793479,20.91457 -16.808523,12.21944 -0.979715,0.71098 -6.800313,-20.92476 z m 40.76775,0 17.798467,12.92023 -6.803698,20.92476 -17.788249,-12.93042 4.551672,-14.01563 z m 207.07732,0 17.78827,12.92023 -6.79348,20.92476 -17.79508,-12.92704 z M 92.839639,202.06695 H 114.836 l -6.7935,20.92818 H 86.039345 Z m 64.743981,0 h 21.99635 l 5.25245,16.16218 1.54784,4.766 h -22.00315 z m 63.98196,0 h 22.00657 l 6.79349,20.92818 h -21.99635 z m 78.34118,0 h 22.00316 l -2.36769,7.29696 -4.43263,13.63122 h -21.99633 l 1.17363,-3.61618 z m 63.5227,0 h 0.002 l 3.90532,12.04594 z m 25.66355,0 h 21.99635 l 6.80031,20.92818 H 395.8933 Z m -272.04921,0.7144 17.79847,12.94061 -6.79691,20.92478 -17.79165,-12.93044 z m 207.07732,0 17.79166,12.93722 -6.79351,20.92817 -17.79844,-12.93383 z m 62.76068,0 2.75892,8.49441 4.04138,12.43715 -17.79847,12.93383 -6.80032,-20.92478 z m -346.658562,8.44338 17.79508,12.93384 -17.798488,12.93042 -17.788248,-12.93383 z m 167.524042,0 h 0.002 l 17.79509,12.93384 -17.7985,12.93042 -17.79167,-12.93383 z m 63.99216,0 17.79508,12.93043 -4.15367,3.02084 -13.6448,9.91299 -17.79507,-12.93042 z m 167.52402,0 h 0.005 l 17.78827,12.93043 -17.78827,12.93721 -17.80188,-12.9338 9.08634,-6.60302 z m -94.38428,5.21504 h 21.99295 l 6.80368,20.92476 h -21.99633 z m -180.50207,8.87541 h 22.00654 l -6.80709,20.92478 h -21.99294 z m 63.99218,0 h 21.99635 l -6.79349,20.92478 h -22.00657 l 5.55522,-17.08748 z m 167.28929,0.71778 17.79167,12.93723 -6.79349,20.91799 -17.7985,-12.93382 z m -374.591129,0.005 17.788238,12.93385 -4.327124,13.32165 -2.466355,7.59294 -17.795072,-12.92703 z m 62.757278,0 6.803698,20.91799 -17.798467,12.93384 -6.79348,-20.91798 z m 63.992201,0 6.80026,20.91799 -17.79845,12.93384 -6.80029,-20.91798 z m 40.77453,0 17.79168,12.93385 -6.79349,20.91798 -1.1022,-0.79944 -16.69627,-12.1344 z m 63.98197,0 17.79849,12.93385 -4.73539,14.56674 -2.06492,6.35124 -17.78828,-12.93042 z m 62.76752,0 0.32656,1.00358 6.47714,19.91783 -17.79849,12.92703 -6.80028,-20.91459 z M 41.8187,239.68621 h 22.009966 l 6.790093,20.92137 H 48.625825 Z m 63.99219,0 h 21.99975 l 0.90488,2.77932 5.892,18.14205 h -21.99294 z m 167.52401,0 h 21.99977 l 6.79689,20.92137 h -21.98957 z m 78.34458,0 h 21.99633 l -6.80368,20.92137 h -21.99295 l 1.78258,-5.49056 z m 63.98196,0 h 22.00316 l -0.25512,0.78245 -6.54517,20.13892 h -21.99975 z m -323.665462,9.15098 4.663925,3.38825 13.134537,9.54223 -17.798462,12.9372 -17.801876,-12.9372 z m 63.988762,0 h 0.005 l 17.78827,12.93044 -4.41219,3.20793 -13.37946,9.72927 -17.80189,-12.9372 z m 167.52743,0 2.32006,1.68733 15.47163,11.24311 -17.79169,12.9372 -17.80186,-12.9372 z m 63.98196,0 17.79849,12.93044 -12.07657,8.77675 -5.72192,4.16045 -17.80187,-12.9372 z m -143.69067,0.44224 6.7935,20.92476 -17.79165,12.92703 -6.80032,-20.91797 z M 48.625825,262.92767 h 21.992934 l -6.790093,20.92137 H 41.822118 Z m 63.988755,0 h 21.99633 l -6.80027,20.92137 h -21.99637 z m 89.18284,0 h 21.99636 l 6.80032,20.92137 h -21.99978 z m 78.34457,0 h 21.99297 l -0.25513,0.78244 -6.54516,20.13893 h -21.99634 z m 64.7338,0 h 21.99293 l 6.80372,20.92137 h -21.99296 z m 63.98877,0 h 21.99635 l 6.80028,20.92137 h -21.99975 z m -272.04582,0.71782 17.79845,12.9372 -6.80026,20.91798 -17.79848,-12.93381 z m 62.77091,0 6.79349,20.92137 -15.84922,11.52204 -1.94246,1.41177 -6.80028,-20.91798 z m 207.06711,0 6.79349,20.92137 -17.79167,12.93381 -2.54799,-7.83447 -4.25233,-13.08351 z m -374.59455,0.005 6.793479,20.91796 -16.808523,12.21944 -0.979715,0.711 -6.800313,-20.91458 z m 40.76775,0 17.798467,12.93382 -6.803698,20.91798 -17.788249,-12.93382 z m 231.5162,0 17.79849,12.93382 -6.80032,20.91798 -17.79845,-12.93043 z m -52.38166,8.43659 17.79505,12.92703 -17.79844,12.93042 -17.79167,-12.93042 z m -94.38088,5.21843 h 21.99635 l 6.80368,20.91458 h -22.00654 z m 194.09586,8.86521 h 21.99633 l -6.80709,20.93497 h -21.99293 z m -311.456242,0.27895 4.66394,3.38825 13.134556,9.54218 L 40.21983,312.31393 22.431582,299.3801 Z m 399.043642,0 17.78826,12.93043 -17.79168,12.93383 -17.80186,-12.93383 z m -311.22492,0.44224 2.47314,7.61334 4.32717,13.31483 -17.79847,12.92362 -6.79009,-20.91797 z m 80.31425,0 17.80186,12.93382 -3.82708,11.77043 -2.97322,9.14754 -17.79165,-12.92362 z m 126.76306,0 6.79351,20.92817 -17.79166,12.92362 -6.80029,-20.91797 z m 40.76436,0 17.79847,12.93382 -4.73536,14.56674 -2.06494,6.35123 -17.79849,-12.92362 z m -104.75651,0.002 6.80028,20.92475 -17.79847,12.92363 -6.80027,-20.91798 z M 86.03593,300.53877 h 22.00657 l 6.7935,20.92136 H 92.839639 Z m 78.34118,0 h 22.00654 l -6.80368,20.92136 h -21.99635 l 0.96272,-2.96298 z m 63.99218,0 h 21.99635 l -1.96286,6.0417 -4.83063,14.87966 H 221.569 Z m 64.74398,0 h 21.99633 l 6.80032,20.92136 h -22.00316 z m 102.78003,0 h 21.99974 l -6.80368,20.92136 h -21.99635 z m 24.20417,0.71782 17.79846,12.93719 -6.80031,20.91798 -17.79846,-12.93381 0.53749,-1.64992 z m -399.030019,0.005 1.547824,1.12601 16.240414,11.80781 L 32.06221,335.11 14.267138,322.18296 Z m 62.760694,0 6.800282,20.92137 -17.798467,12.93043 -6.79348,-20.91798 z m 52.381645,8.44 17.69643,12.84876 0.0985,0.0748 -17.79846,12.93043 -17.79509,-12.93043 z m 63.98877,0 10.01165,7.26972 7.77662,5.6539 -17.78827,12.93042 -17.79504,-12.93042 z m 79.09638,0 17.53995,12.73992 0.25174,0.1837 -17.79169,12.93042 -17.79848,-12.93381 15.00898,-10.89613 z m 63.98197,0 13.01208,9.44691 4.78641,3.47671 -17.79849,12.93042 -17.78824,-12.93042 z m -301.454792,5.21502 h 22.006548 l 4.663951,14.36599 2.126142,6.54859 H 48.625825 Z m 115.761502,8.86522 h 21.99294 l 6.80709,20.93496 h -22.00654 l -1.21786,-3.75564 z m 63.98196,0 h 22.00657 l 6.79349,20.93496 h -21.99635 z m 78.34118,0 h 22.00653 l -6.80708,20.93496 h -21.99294 z m -207.301836,0.71664 1.89483,1.37777 15.903626,11.55946 -6.80029,20.91799 -17.798482,-12.92361 z m 167.524006,0 17.80188,12.93723 -6.80369,20.91799 -17.79846,-12.92364 z m 126.75287,0 2.21802,6.8275 4.58228,14.10408 -7.19832,5.22524 -10.60015,7.6984 -6.80032,-20.91799 z m -231.50938,0.005 6.79351,20.92818 -17.78828,12.92361 -6.80032,-20.91795 z m 63.98196,0 6.80369,20.92818 -17.79846,12.92361 -6.79349,-20.91795 z m 104.76674,0 17.79166,12.93384 -6.79351,20.91795 -17.79844,-12.92361 z m 126.74947,0 6.79689,20.92818 -17.79168,12.92361 -6.80027,-20.91795 z M 48.625825,338.1518 h 21.992934 l -6.790093,20.92136 H 41.8187 Z m 63.988755,0 h 21.99633 l -0.25512,0.78241 -6.54515,20.13895 h -21.99975 z m 232.2646,0 h 21.99295 l 6.80368,20.92136 h -21.99633 z m 63.98538,0 h 21.99975 l 6.80029,20.92136 h -22.00316 z m -156.90006,9.15776 17.79848,12.92361 -1.89484,1.37777 -15.90703,11.55608 -17.79167,-12.93385 z m 143.08177,0 17.79504,12.92361 -17.79166,12.93725 -17.80187,-12.93725 7.05201,-5.11975 z m -374.59115,0.005 17.795071,12.92019 -5.51102,4.00743 -12.280666,8.92983 h -0.002 L 2.6543078,360.23224 Z m 63.98194,0 17.80189,12.92019 -17.80189,12.93387 -17.795051,-12.93387 z m 79.70534,0.43884 12.66848,9.19859 5.12996,3.72842 -6.80027,20.92817 -3.41207,-2.47993 -14.37621,-10.4573 z m 151.20193,0.002 6.80032,20.91457 -17.79849,12.93384 -6.80028,-20.92479 z M 41.8187,361.39348 h 22.009966 l 6.790093,20.92817 H 48.625825 Z m 63.99219,0 h 21.99975 l 6.79688,20.92817 h -21.99294 z m 78.34458,0 h 21.99294 l -2.09894,6.4669 -4.69116,14.46127 h -22.00654 l 1.69411,-5.21844 z m 89.18286,0 h 21.99634 l 6.79689,20.92817 h -21.98957 z m 78.34115,0 h 21.99633 l -6.80368,20.92817 h -21.99295 z m 63.98196,0 h 22.00316 l -6.80029,20.92817 h -21.99975 l 2.50716,-7.7188 z m -312.05835,0.71778 6.80029,20.93158 -5.48379,3.98696 -12.314666,8.94687 -6.800316,-20.92818 z m 167.52403,0 6.80369,20.93158 -17.80188,12.93383 -6.80027,-20.92818 z m 104.75651,0 12.07657,8.77677 5.7219,4.16046 -6.8003,20.92818 -17.79849,-12.93383 z m -167.52402,0.005 17.79846,12.93381 -6.80369,20.92481 -17.78826,-12.93045 z m -52.37487,8.43658 h 0.005 l 17.78488,12.93383 -5.31028,3.86111 -12.4746,9.07272 h -0.005 l -17.80185,-12.93041 z m 167.52405,0 h 0.002 l 9.35849,6.80712 8.42977,6.12671 -17.78826,12.93383 -17.79847,-12.93383 z m -95.1395,5.21845 h 21.99635 l -6.79349,20.92138 h -22.00657 z m -179.743465,8.87545 h 21.996321 l -6.79348,20.9248 H 41.8187 l 0.765447,-2.35068 z m 360.235335,0 h 22.00315 l 6.68122,20.55736 0.11915,0.36742 h -22.00316 z m -336.0312,0.7212 17.798467,12.93042 -5.034712,15.47841 -1.768986,5.43957 -0.452433,-0.32659 -17.335816,-12.6038 z m 63.98878,0 13.13455,9.54219 4.6639,3.38823 -6.05186,18.61492 -0.7484,2.30646 -17.79848,-12.93381 z m 62.77091,0 6.79349,20.91799 -13.53257,9.83813 -4.25911,3.09568 -6.80028,-20.92138 z m 80.31763,0 17.78827,12.93042 -5.7185,17.61137 -1.07498,3.30661 -17.79508,-12.93041 z m 62.76072,0 2.4663,7.58612 4.33398,13.33187 -17.79846,12.93041 -6.79347,-20.91798 z m 63.98876,0 6.79349,20.91799 -14.27756,10.37901 -3.51411,2.5548 -6.80032,-20.92138 z m -374.59455,0.002 2.976616,9.16456 3.816863,11.75001 -13.930549,10.12727 -3.857689,2.80315 -6.800313,-20.91798 z m 60.777429,13.64478 H 114.836 l -6.7935,20.91799 H 86.039345 l 2.204403,-6.78329 z m 64.747371,0 h 21.99296 l 6.80029,20.91799 h -22.00315 z m 63.97857,0 h 22.00657 l 6.79349,20.91799 h -21.99635 z m 78.34118,0 h 22.00316 l -6.80032,20.91799 h -21.99633 z m 64.74395,0 h 21.99978 l 2.28263,7.02824 4.51426,13.88975 h -21.99296 z m 74.61617,9.1476 17.78826,12.93381 -17.78826,12.93383 -17.80189,-12.93383 z m -399.04705,0.005 17.798488,12.93042 -17.79508,12.93382 -17.791656,-12.93382 z m 88.43106,0 17.79848,12.93042 -17.79508,12.93382 -17.79847,-12.93382 z m 79.09639,0 17.79847,12.93042 -17.79507,12.93382 h -0.002 l -17.79165,-12.93382 z m 63.98877,0 17.79847,12.93042 -17.79508,12.93382 -17.79846,-12.93382 4.9565,-3.60257 z m 79.09637,0 17.79846,12.93042 -17.79506,12.93382 -17.79847,-12.93382 z M 86.03593,422.24858 h 22.00657 l 6.7935,20.92474 H 92.839639 Z m 78.34118,0 h 22.00654 l -6.80709,20.92474 H 157.5802 l 2.69089,-8.2801 z m 63.99218,0 h 21.99635 l -0.7042,2.17034 -6.09269,18.7544 h -22.00317 l 3.4801,-10.70559 z m 64.74398,0 h 21.99294 l 6.80708,20.92474 h -22.00653 l -1.31651,-4.06178 z m 78.34115,0 h 21.99635 l -1.46279,4.49723 -5.3409,16.42751 h -21.99637 z m -182.86296,0.71778 17.79168,12.93381 -6.79349,20.92138 -17.79847,-12.93382 z m 207.06712,0 3.51411,2.5548 14.27756,10.37901 -6.19138,19.0674 -0.60211,1.85398 -17.7985,-12.93382 z m -374.591129,0.002 17.788238,12.93044 -5.718497,17.61137 -1.074982,3.3066 -17.795072,-12.93043 z m 62.757278,0 1.768986,5.43958 5.034712,15.4784 -17.798467,12.93043 -6.79348,-20.91797 z m 63.992201,0 6.80026,20.91798 -5.48376,3.98696 -12.31469,8.94686 -6.80029,-20.92136 z m 143.08853,0 6.79009,20.91798 -17.78827,12.93043 -6.80029,-20.91797 z m 40.76095,0 17.80187,12.93044 -6.80369,20.91797 -17.78824,-12.93043 z M 41.8187,436.61602 H 63.828666 L 70.618759,457.534 H 48.625825 Z m 373.84274,0 h 22.00316 l -6.80029,20.91798 h -21.99975 z m -194.09586,8.87544 h 22.00657 l 6.79349,20.92477 h -21.99635 z m 101.94659,0.27215 17.78827,12.93381 -17.78827,12.93385 h -0.002 l -17.79846,-12.93385 z m -167.52743,0.002 17.79166,12.93039 -17.78825,12.93385 h -0.002 l -17.80188,-12.93385 8.67812,-6.3036 z m -63.379816,0.44222 13.134526,9.54219 4.66393,3.38823 -6.80029,20.92137 -17.798482,-12.92703 z m 167.524006,0 13.13454,9.54219 4.66393,3.38823 -6.80028,20.92137 -17.79846,-12.92703 z m 126.75287,0 2.47315,7.60995 4.32715,13.31481 -13.00525,9.44695 -4.79322,3.48008 -6.80032,-20.92137 z m -167.52403,0.005 1.52064,4.67753 5.27966,16.24382 -17.79846,12.92363 -6.79349,-20.91797 z M 48.625825,459.85771 h 21.992934 l -6.790093,20.91796 H 41.822118 Z m 63.988755,0 h 21.99633 l -3.56852,10.97436 -3.23175,9.9436 h -21.99975 z m 64.73377,0 h 22.00996 l 6.7901,20.91796 h -21.99294 z m 102.79364,0 h 21.99297 l -6.80029,20.91796 h -21.99634 z m 64.7338,0 h 21.99293 l 6.80372,20.91796 h -21.99296 z m 63.98877,0 h 21.99635 l 6.80028,20.91796 h -21.99975 z m -233.72399,0.71779 6.80027,20.92137 -17.79844,12.93381 -3.75565,-11.57306 -3.03446,-9.3483 z m 129.20559,0.005 17.79849,12.93042 -4.52787,13.92037 -2.27583,6.9976 -17.79507,-12.93041 z m -283.887655,8.43657 17.788269,12.92703 -0.619154,0.44906 -17.169115,12.48138 h -0.002 L 2.6580168,481.94415 Z m 63.981961,0 4.578888,3.32702 13.216196,9.60001 -17.795084,12.93044 h -0.005 L 66.647163,481.94415 Z m 167.524034,0 17.79505,12.92703 -17.32219,12.58685 -0.47286,0.34359 -17.79167,-12.93044 z m 143.08515,0 17.78827,12.92703 -17.78827,12.93044 -17.79847,-12.93044 2.27245,-1.65328 z M 41.8187,483.1008 h 22.009966 l 6.790093,20.93157 H 48.625825 Z m 63.99219,0 h 21.99636 l 6.80366,20.93157 h -21.99633 z m 245.86859,0 h 21.99633 l -0.78241,2.41189 -6.02468,18.51968 h -21.99293 z m 63.98196,0 h 22.00316 l -2.82691,8.6985 -3.97338,12.23307 h -21.99975 l 1.96968,-6.06549 z m -312.05835,0.72116 6.80029,20.92478 -17.713441,12.86579 -0.08505,0.0612 -6.800292,-20.92137 z m 104.75312,0 17.80186,12.93043 -6.80369,20.91799 -2.84396,-2.06493 -14.9443,-10.85871 z m 62.77091,0 6.80028,20.92478 -17.79847,12.92702 -6.80027,-20.92137 z m 63.99215,0 6.79351,20.92478 -17.79166,12.92702 -6.80029,-20.92137 z m 40.76436,0 13.13454,9.5422 4.66393,3.38823 -4.83742,14.8865 -1.96288,6.03829 -17.79849,-12.93044 0.18718,-0.58171 z m -231.50598,0.005 17.78828,12.927 -5.71852,17.61138 -1.07499,3.3066 -17.79509,-12.92023 z m 295.49815,0 17.79168,12.927 -6.79689,20.91798 -17.79506,-12.92023 z m -275.49869,13.64482 h 22.00654 l -6.80368,20.91795 h -21.99635 z m 63.99218,0 h 21.99296 l -6.7901,20.91795 H 221.569 l 2.20437,-6.78329 z m 64.74398,0 h 21.99633 l 5.43276,16.70987 1.36756,4.20808 h -22.00316 z m -244.487445,8.88568 h 21.992934 l -6.790093,20.91456 H 41.822118 Z m 87.580575,0.27213 10.54233,7.65415 7.25614,5.27288 -2.93581,2.13297 -14.85927,10.79747 h -0.005 l -17.79507,-12.93044 z m 63.99216,0.005 17.78827,12.92021 -15.70974,11.42344 -2.07512,1.51041 -17.79845,-12.93385 15.63149,-11.34855 z m 79.09638,0 17.78827,12.92362 -17.78484,12.93044 h -0.005 l -17.79848,-12.93044 z m 63.98197,0 17.79849,12.92362 -17.79508,12.93044 h -0.002 l -6.98401,-5.07898 -10.80426,-7.85487 8.23587,-5.98044 z m -311.2147,0.44224 6.796895,20.91457 -17.23716,12.529 -0.554494,0.40142 -6.800313,-20.92476 z m 40.76775,0 17.798467,12.92023 -6.800282,20.92476 -17.791665,-12.93042 4.551672,-14.01562 z m 358.26566,0 6.80372,20.91457 -17.80187,12.93383 -6.80031,-20.92478 z M 92.839639,520.71491 H 114.836 l -6.7935,20.93158 H 86.03593 Z m 64.743981,0 h 21.99294 l 6.80709,20.93158 h -22.00654 z m 63.98196,0 h 22.00657 l 6.79349,20.93158 h -21.99635 z m 78.34118,0 h 22.00653 l -6.80708,20.93158 h -21.99294 l 0.37081,-1.14303 z m 89.18284,0 h 21.99635 l 5.33751,16.41733 1.46958,4.51425 H 395.8933 Z m -64.96848,0.71777 17.79166,12.93385 -6.79351,20.92137 -17.79844,-12.92704 z m -207.07732,0.002 17.79847,12.93045 -6.80031,20.92138 -17.78825,-12.92363 z m 102.31058,0 6.80369,20.92479 -17.79846,12.92362 -6.79349,-20.91796 z m 40.77455,0 0.30957,0.22457 17.4889,12.70593 -6.80028,20.92138 -17.79846,-12.92704 0.18718,-0.58173 z m 126.75287,0 1.35057,4.15026 5.44973,16.77794 -17.79847,12.92363 -6.80032,-20.92138 z m -346.658562,8.4366 17.79508,12.93383 -16.995641,12.34531 -0.799439,0.57833 -17.788239,-12.92364 0.265324,-0.19391 z m 399.043642,0 17.78485,12.93383 -17.78485,12.92364 -17.80189,-12.92364 z m -94.3877,5.21165 h 21.99295 l 5.43275,16.70987 1.36756,4.20811 h -21.99296 z m -180.50207,8.88563 h 22.00315 l -1.30292,4.00735 -5.49737,16.9072 h -21.99296 z m 87.584,0.27214 17.80187,12.92364 -2.04452,1.4866 -15.75396,11.44721 -17.79506,-12.93381 z m -63.36965,0.44225 17.79168,12.92361 v 0.002 l -4.14347,12.76033 -2.65002,8.16444 -17.79847,-12.93383 z m -104.766731,0.002 6.803698,20.91455 -17.798467,12.93042 -6.79348,-20.92475 2.585398,-1.87783 z m 63.992201,0 2.13975,6.57236 4.66051,14.34219 -5.48376,3.98698 -12.31469,8.94685 -6.80029,-20.92816 z m 167.52402,0 1.82676,5.61645 4.97694,15.2981 -17.79849,12.93042 -6.80028,-20.92475 z m 80.31763,0 17.79167,12.92022 -6.79349,20.92816 -17.7985,-12.93383 z m -374.591129,0.002 17.788238,12.91683 -4.296537,13.23657 -2.496942,7.68817 -17.795072,-12.93041 z m 20.754667,13.6346 h 22.006548 l 3.786256,11.67514 3.003837,9.25303 H 48.625825 Z m 63.988772,0 h 21.99975 l 1.81659,5.59264 4.98029,15.33553 h -21.99294 z m 102.78343,0 h 22.00317 l -6.80029,20.92817 h -21.99978 z m 64.74058,0 h 21.99977 l 2.86097,8.81079 3.93592,12.11738 h -21.98957 z m 78.34458,0 h 21.99633 l -6.80368,20.92817 h -21.99295 l 1.94246,-5.98045 z m 63.98196,0 h 22.00316 l -6.80029,20.92817 h -21.99975 l 2.50716,-7.7188 z m -182.85613,0.71779 17.79504,12.93722 -6.79689,20.92479 -17.79847,-12.93383 0.0209,-0.0681 z m -140.809332,8.43999 17.468492,12.6957 0.32656,0.23812 -17.79846,12.93041 -17.795052,-12.93041 z m 63.992172,0 17.78487,12.93382 -17.78828,12.93041 -17.79846,-12.93041 z m 167.52402,0 17.78486,12.93382 -17.78824,12.93041 -17.79508,-12.93041 z m 63.98196,0 17.46849,12.6957 0.32659,0.23812 -1.19746,0.87087 -16.60103,12.05954 -17.79505,-12.93041 z M 48.625825,581.5744 h 21.992934 l -1.034157,3.18071 -5.755936,17.74067 H 41.8187 Z m 63.988755,0 h 21.99633 l -6.80366,20.92138 h -21.99636 z m 167.52741,0 h 21.99297 l -6.80368,20.92138 H 273.3349 l 3.19096,-9.81094 z m 64.7338,0 h 21.99293 l 6.80709,20.92138 h -21.99633 z m 63.98537,0 h 22.00315 l 6.80029,20.92138 h -22.00316 z m -272.04242,0.72119 17.79845,12.93042 -6.80026,20.91797 -17.79848,-12.93383 z m 62.77091,0 6.79349,20.91797 -17.79168,12.93042 -6.80028,-20.91797 z m 63.98196,0 1.57165,4.83401 5.22866,16.08396 -17.66242,12.83174 -0.13609,0.0987 -6.7901,-20.91794 z m 143.08515,0 6.79349,20.91797 -16.3697,11.89626 -1.42197,1.03416 -6.80032,-20.91797 z m -374.59455,0.002 6.793479,20.91459 -17.788238,12.92701 -6.800313,-20.91455 z m 40.76775,0 17.798467,12.92705 -6.800282,20.91795 -17.791665,-12.93041 z m 231.5162,0 10.34162,7.51129 7.45687,5.41576 -6.80032,20.91795 h -0.005 L 297.54426,603.21218 Z M 157.58362,595.9424 h 21.99635 l 6.80029,20.91798 h -22.00315 z m 63.98196,0 h 22.00657 l 4.6265,14.25035 2.16699,6.66763 h -21.99635 z m 130.1139,8.87544 h 21.99633 l -6.80368,20.92476 h -21.99634 z m 87.5874,0.27215 17.78485,12.93382 -17.78827,12.93042 -17.79847,-12.93042 z m -399.04705,0.002 17.798488,12.93039 -17.798488,12.93043 -17.784831,-12.93043 z m 167.52745,0 17.79847,12.93039 -17.79847,12.93043 -17.78826,-12.93043 z m 63.98877,0 17.79847,12.93039 -1.25189,0.9117 -16.54319,12.01873 -17.79846,-12.93043 z m -143.69409,0.4422 6.80371,20.92478 -17.1249,12.43034 -0.67697,0.49329 -6.79009,-20.91799 z m 207.07731,0 6.79351,20.92478 -17.79166,12.92363 -6.80029,-20.91456 z m 40.76436,0 17.79847,12.93042 -5.22864,16.08395 -1.57166,4.83404 -17.79849,-12.92363 3.98701,-12.26706 z m -289.8477,13.65062 h 22.00657 l 6.7935,20.92136 H 92.839639 Z m 78.34118,0 h 22.00654 l -6.80709,20.92136 h -21.99294 z m 63.99218,0 h 21.99635 l -0.82328,2.53438 -5.97361,18.38698 h -22.00317 z m 64.74398,0 h 21.99294 l 6.80708,20.92136 h -22.00653 z m 102.78003,0 h 21.99974 l -1.73152,5.32048 -5.07557,15.60088 H 389.0896 Z m -312.065155,0.72118 6.80368,20.91456 -17.801865,12.93384 -1.299502,-4.00397 -5.493978,-16.914 z m 104.763315,0 1.32673,0.96613 16.46495,11.9643 -6.79349,20.91797 -17.79847,-12.93384 z m 102.314,0 6.79009,20.91798 -17.79168,12.93042 -6.79688,-20.91797 z m 129.19201,0 17.79846,12.93043 -6.80031,20.91797 -17.79846,-12.93384 0.86407,-2.66024 z m -399.030019,0.002 17.788238,12.92701 -6.793479,20.91456 -17.795072,-12.927 z m 115.142339,8.43315 17.79508,12.92363 -17.79847,12.93044 -17.79507,-12.93044 z m 207.07053,0 17.79508,12.92363 -17.79849,12.93044 -17.78824,-12.93044 z M 41.8187,633.55281 h 22.009966 l 6.790093,20.91795 H 48.625825 Z m 179.7503,8.8754 h 22.00315 l 6.79687,20.92476 h -21.99973 z m 165.3128,0.7144 6.8003,20.92476 -17.79847,12.92706 -6.80032,-20.91799 z m -294.276876,0.002 17.798456,12.93043 -4.73537,14.5667 -2.06492,6.35128 -0.10566,-0.0783 -17.693015,-12.84879 z m 62.767496,0 6.7969,20.92138 -14.46467,10.5083 -3.327,2.41531 -6.80032,-20.91456 z m 104.75651,0 17.79847,12.93043 -6.80028,20.91798 -17.79846,-12.92703 z m 63.99219,0 5.17421,3.76245 12.61745,9.16798 -6.79351,20.91798 -0.10195,-0.0748 -17.6964,-12.85219 z m -104.76335,0.002 1.13624,3.49713 5.66406,17.42425 -12.90319,9.36531 -4.89527,3.55833 -6.79349,-20.91798 z m 231.51282,0 6.79689,20.91799 -17.79168,12.92703 -6.80027,-20.91798 z M 48.625825,656.79143 h 21.992934 l -6.790093,20.91799 H 41.822118 Z m 63.988755,0 h 21.99633 l -6.80027,20.91799 h -21.99637 z m 64.73377,0 h 22.00996 l 6.7901,20.91799 h -21.99294 z m 102.79364,0 h 21.99297 l -6.80029,20.91799 h -21.99634 z m 64.73719,0 h 21.98954 l 6.80372,20.91799 h -21.99296 z m 63.98538,0 h 21.99635 0.005 l 6.79689,20.91799 H 415.66308 Z M 20.458505,665.94925 38.243368,678.87288 20.45512,691.80332 2.6566325,678.87288 Z m 63.981961,0 9.174809,6.66084 8.620275,6.26279 -17.79849,12.93044 -17.788248,-12.93044 z m 79.092984,0 14.61433,10.6138 3.18074,2.30983 -17.79847,12.93044 -17.78487,-12.93044 z m 88.43105,0 17.79505,12.92363 -4.15363,3.01747 -13.64481,9.91297 -17.78828,-12.93044 z m 63.99217,0 17.79507,12.92363 -17.79846,12.93044 -17.79847,-12.93044 z m 79.09298,0 15.78797,11.46766 2.0003,1.45597 -17.79165,12.93044 -17.7917,-12.93044 3.39506,-2.46632 z M 41.8187,680.03293 h 22.006579 l 6.79348,20.92815 H 48.625825 Z m 63.99219,0 h 21.99975 l 6.46349,19.89399 0.33678,1.03416 h -21.99633 z m 78.34458,0 h 21.99294 l -0.26195,0.80624 -6.52815,20.12191 h -0.005 -22.00658 z m 89.17943,0 h 21.99638 l 6.46692,19.89399 0.33676,1.03416 h -21.99297 z m 78.34458,0 h 21.99633 l -6.80368,20.92815 h -21.99634 z m 63.98196,0 h 22.00316 l -6.80029,20.92815 h -21.99975 z m -312.05835,0.72118 6.80029,20.92136 -17.798456,12.92703 -6.800316,-20.91795 z m 167.52403,0 6.80028,20.92136 -17.79847,12.92703 -6.80027,-20.91795 z m 63.99215,0 6.79351,20.92136 -5.27287,3.8305 -12.51879,9.09653 -6.80029,-20.91795 z m 40.76436,0 17.79847,12.93044 -4.73536,14.56672 -2.06494,6.35123 -17.79849,-12.92703 z m -231.50598,0.005 2.48333,1.803 15.30834,11.12405 -6.7969,20.91795 -17.79509,-12.92703 z m 63.98196,0 17.79846,12.92364 -4.75577,14.63475 -2.04453,6.28661 -17.79165,-12.92703 z m 20.00968,13.64482 h 21.99635 l -6.79349,20.91797 h -22.00657 z m -179.743465,8.87888 h 21.992934 l -6.790093,20.92137 H 41.8187 Z m 360.238735,0 h 21.99975 l 6.80029,20.92137 h -22.00316 z m -272.65477,0.27895 14.61437,10.61377 3.18071,2.30985 -0.74839,0.54429 -17.05008,12.38614 -17.79507,-12.93043 z m 207.07053,0 17.79508,12.92362 -0.74842,0.54429 -17.05007,12.38614 -17.78824,-12.93043 z m -311.21811,0.43882 6.796895,20.92138 -17.791654,12.93042 -6.800313,-20.92476 z m 40.76775,0 17.798467,12.92704 -4.218273,12.97806 -2.585425,7.9467 -17.788249,-12.92701 z m 126.75969,0 5.82056,17.93118 0.97293,2.9902 -17.79168,12.93382 -6.80028,-20.92477 z m 80.31763,0 17.79169,12.93043 -6.79351,20.92477 -17.79847,-12.93041 z m 126.74948,0 6.79687,20.92138 -16.01247,11.63772 -1.78258,1.2961 -3.55834,-10.95053 -3.24198,-9.97424 z M 92.839639,717.64539 H 114.836 L 108.0425,738.577 H 86.03593 Z m 64.743981,0 h 21.99294 l 6.80709,20.93161 h -22.00654 z m 63.98196,0 h 22.00657 l 6.79349,20.93161 h -21.99635 z m 78.34118,0 h 22.00653 l -0.5817,1.7928 -6.22538,19.13881 h -21.99294 l 0.37081,-1.14303 z m 64.74395,0 h 21.99637 l 6.80369,20.93161 h -21.99635 z m -247.60691,0.72122 17.79847,12.93042 -5.48717,16.89017 -1.31314,4.03798 -17.78825,-12.93041 z m 245.39913,0 1.35054,4.15022 5.44975,16.77794 -17.79847,12.93041 -6.80029,-20.92815 z M 40.223238,726.80318 58.018318,739.73359 40.21983,752.66744 22.431582,739.737 Z m 167.527442,0 10.96076,7.96372 6.83431,4.96669 -17.79847,12.93385 -17.78826,-12.93385 z m 63.98876,0 17.79846,12.93382 -17.80185,12.93044 -17.79507,-12.93385 z m 167.52744,0 17.78826,12.93382 -17.78826,12.93383 -17.80189,-12.93383 z m -274.88977,14.09725 h 22.00315 l -1.30292,4.00738 -5.49737,16.90719 h -21.99635 z m 63.99218,0 h 21.99296 l -6.7901,20.91457 h -22.00657 z m 64.74398,0 h 21.99633 l 6.80369,20.91457 h -22.00653 z m -145.29634,0.7144 0.27894,0.85384 6.52132,20.06071 -17.79845,12.93723 -6.80029,-20.91795 z m 40.77453,0 6.30361,4.5823 11.48807,8.35153 -5.35793,16.49897 -1.43556,4.41898 -1.89484,-1.37773 -15.90363,-11.5595 z m 207.06712,0 17.79167,12.93383 -5.30009,16.32205 -1.4934,4.5959 -17.7985,-12.93723 z m -374.591129,0.005 17.788238,12.93042 -6.793479,20.91457 -17.795072,-12.93383 z m 62.757278,0 6.803698,20.91116 -17.798467,12.93383 -6.79348,-20.91457 z m 207.077341,0 6.79348,20.91116 -17.78827,12.93723 -6.80029,-20.91797 z m 40.76775,0 17.79846,12.93042 -6.80028,20.91457 -7.03164,-5.10957 -10.76001,-7.82426 z M 41.8187,755.26467 h 22.009966 l 3.473303,10.70902 3.31679,10.21234 H 48.625825 Z m 63.99219,0 h 21.99975 l 2.79632,8.60666 4.00056,12.3147 h -21.99294 z m 245.86859,0 h 21.99633 l -6.80368,20.92136 h -21.99295 z m 63.98196,0 h 22.00316 l -6.80029,20.92136 h -21.99637 z m -194.09586,8.87203 h 22.00657 l 6.79349,20.92815 h -21.99635 z m -129.569602,0.27894 16.325462,11.86224 1.46959,1.06701 -17.79846,12.93382 -17.795052,-12.93382 z m 63.992172,0 17.78825,12.93042 -17.79166,12.93384 -17.79846,-12.93045 z m 167.52402,0 17.78827,12.93042 -17.79165,12.93384 -17.79508,-12.93045 z m 63.98196,0 17.79508,12.92925 -17.79849,12.93382 -17.79505,-12.93382 z m -127.3652,0.43882 12.07656,8.77678 5.72191,4.16047 -6.80028,20.91796 -17.79846,-12.92362 z m -40.77116,0.002 1.69413,5.21843 5.10617,15.70973 -17.80186,12.92363 -6.79009,-20.91797 z M 48.625825,778.50473 H 70.618759 L 63.828666,799.4295 H 41.8187 Z m 63.988755,0 h 21.99633 l -6.80366,20.92477 h -21.99636 l 5.84778,-17.98558 z m 64.73377,0 h 22.00996 l 6.7901,20.92477 h -21.99294 z m 102.79364,0 h 21.99297 l -6.80368,20.92477 H 273.3349 l 5.33412,-16.39692 z m 64.7338,0 h 21.99293 l 6.80709,20.92477 h -21.99633 z m 63.98877,0 h 21.99635 l 6.80369,20.92477 h -22.00316 z m -233.72399,0.7212 6.80027,20.92136 -17.79844,12.93042 -6.79011,-20.91796 z m 231.51619,0 0.88787,2.73847 5.90562,18.18289 -5.61647,4.08221 -12.1752,8.84821 -6.80032,-20.91796 z m -333.8268,0.005 17.798467,12.93042 -5.592631,17.19974 -1.207651,3.71821 -17.791665,-12.93037 z m 231.5162,0 17.79849,12.93042 -5.59265,17.19974 -1.20767,3.71821 -17.79845,-12.93039 z M 20.458505,787.66414 38.246774,800.59116 20.45512,813.5216 2.6566325,800.59116 Z m 231.502605,0 10.54232,7.65416 7.25612,5.27286 -7.81743,5.68108 -9.98101,7.24936 -17.79167,-12.93044 z m -146.15022,14.09047 h 21.99975 l 6.80027,20.9214 h -21.99633 z m 245.86859,0 h 21.99633 l -6.80368,20.9214 h -21.99634 z m -312.068563,0.7144 0.04084,0.12587 6.759487,20.80239 -17.798458,12.92357 -6.790092,-20.918 z m 63.992173,0 0.0409,0.12587 6.75946,20.80239 -17.798466,12.92357 -6.800316,-20.918 z m 104.75652,0 17.79846,12.93383 -6.80369,20.91453 -17.78826,-12.9201 z m 62.76751,0 0.0409,0.12587 6.75947,20.80239 -17.79847,12.92357 -6.80028,-20.918 z m 63.99215,0 6.79351,20.92826 -17.17592,12.47456 -0.61574,0.44901 -6.80029,-20.918 z m 40.76436,0 17.79847,12.93383 -5.22864,16.08396 -1.57166,4.83404 -17.79849,-12.92357 z m -231.50598,0.002 17.78828,12.93041 -6.79351,20.91456 -17.79509,-12.92013 z m 295.49815,0 17.79168,12.93041 -6.79689,20.91456 -17.79506,-12.92013 z M 61.597047,816.11583 h 21.992964 l 6.004257,18.45841 0.802842,2.46631 H 68.400746 Z m 102.780063,0 h 22.00654 l -6.80709,20.92472 h -21.99294 l 2.06151,-6.3478 z m 63.99218,0 h 21.99973 l -6.80027,20.92472 h -22.00317 z m 64.74398,0 h 21.99294 l 6.00426,18.45841 0.80282,2.46631 h -22.00653 z m 102.78003,0 h 21.99974 l -6.80709,20.92472 h -21.99294 z"
     id="path131117"
     inkscape:connector-curvature="0" />
</svg>
